<svg width="38" height="38" viewBox="0 0 38 38" fill="none" xmlns="http://www.w3.org/2000/svg" class='current'>
<path d="M12.5422 15.9727C13.4047 15.9727 14.1047 15.2727 14.1047 14.4102V8.31641C14.1047 5.59219 16.3211 3.375 19.0454 3.375C21.7696 3.375 23.9868 5.59219 23.9868 8.31641V14.4102C23.9868 15.2727 24.686 15.9727 25.5493 15.9727C26.4118 15.9727 27.1118 15.2727 27.1118 14.4102V8.31641C27.1125 3.86875 23.4938 0.25 19.0454 0.25C14.5985 0.25 10.9797 3.86875 10.9797 8.31641V14.4102C10.9797 15.2727 11.6797 15.9727 12.5422 15.9727Z" fill="#1D2120"/>
<path d="M36.9688 12.4617H28.675V14.4102C28.675 16.1336 27.2734 17.5352 25.55 17.5352C23.8266 17.5352 22.425 16.1336 22.425 14.4102V12.4617H15.668V14.4102C15.668 16.1336 14.2664 17.5352 12.543 17.5352C10.8195 17.5352 9.41798 16.1336 9.41798 14.4102V12.4617H1.03126C0.600008 12.4617 0.333601 12.8016 0.435945 13.2203L5.90313 35.4836C6.23282 36.7352 7.55001 37.75 8.84376 37.75H29.1563C30.4516 37.75 31.7672 36.7352 32.0984 35.4836L37.5641 13.2203C37.6664 12.8008 37.4008 12.4617 36.9688 12.4617Z" fill="#1D2120"/>
</svg>
