<svg width="32" height="32" class="current" viewBox="0 0 32 32" fill="none" xmlns="http://www.w3.org/2000/svg">
<path d="M16 0C7.1625 0 0 7.1625 0 16C0 24.8375 7.1625 32 16 32C24.8375 32 32 24.8375 32 16C32 7.1625 24.8375 0 16 0ZM16 29C8.83125 29 3 23.1681 3 16C3 8.83187 8.83125 3 16 3C23.1688 3 29 8.83187 29 16C29 23.1681 23.1688 29 16 29ZM15.9438 11C17.26 11 18.5012 11.5195 19.4331 12.4613C20.0191 13.0452 20.9662 13.055 21.5562 12.471C22.1441 11.887 22.1481 10.9379 21.566 10.3479C20.066 8.83414 18.0691 8.00039 15.9441 8.00039C15.9441 8.00039 15.9461 8.00039 15.9441 8.00039C13.821 8.00039 11.8223 8.83414 10.3223 10.3479C7.23226 13.4654 7.23226 18.5354 10.3223 21.6541C11.8223 23.1679 13.821 24.0016 15.9441 24.0016C15.9461 24.0016 15.9441 24.0016 15.9441 24.0016C18.0691 24.0016 20.066 23.1679 21.566 21.6541C22.148 21.0643 22.1441 20.1154 21.5562 19.531C20.9664 18.949 20.0194 18.9548 19.4331 19.5408C18.5012 20.482 17.26 21.002 15.9438 21.002C15.9438 21.002 15.9457 21.002 15.9438 21.002C14.6256 21.002 13.3844 20.4825 12.4506 19.5408C10.5169 17.5895 10.5169 14.4139 12.4506 12.4595C13.3875 11.5188 14.625 11 15.9438 11Z" fill="white"/>
</svg>
