<svg width="21" height="22" viewBox="0 0 21 22" fill="none" xmlns="http://www.w3.org/2000/svg">
<path d="M10.4391 5.77423C7.59956 5.77423 5.24683 8.0864 5.24683 10.9665C5.24683 13.8465 7.559 16.1587 10.4391 16.1587C13.3191 16.1587 15.6313 13.806 15.6313 10.9665C15.6313 8.12696 13.2786 5.77423 10.4391 5.77423ZM10.4391 14.2928C8.61367 14.2928 7.11279 12.7919 7.11279 10.9665C7.11279 9.14107 8.61367 7.64019 10.4391 7.64019C12.2645 7.64019 13.7653 9.14107 13.7653 10.9665C13.7653 12.7919 12.2645 14.2928 10.4391 14.2928Z" fill="white"/>
<path d="M15.8342 6.82893C16.4839 6.82893 17.0106 6.30225 17.0106 5.65256C17.0106 5.00287 16.4839 4.4762 15.8342 4.4762C15.1845 4.4762 14.6578 5.00287 14.6578 5.65256C14.6578 6.30225 15.1845 6.82893 15.8342 6.82893Z" fill="white"/>
<path d="M18.8765 2.61022C17.8218 1.51498 16.3209 0.947083 14.6172 0.947083H6.26098C2.73188 0.947083 0.37915 3.29982 0.37915 6.82892V15.1446C0.37915 16.8889 0.947052 18.3898 2.08285 19.485C3.17809 20.5397 4.63841 21.067 6.30155 21.067H14.5767C16.3209 21.067 17.7813 20.4991 18.8359 19.485C19.9312 18.4303 20.4991 16.9294 20.4991 15.1852V6.82892C20.4991 5.12521 19.9312 3.6649 18.8765 2.61022ZM18.7142 15.1852C18.7142 16.4427 18.268 17.4568 17.5379 18.1464C16.8077 18.836 15.7936 19.201 14.5767 19.201H6.30155C5.08462 19.201 4.07051 18.836 3.34035 18.1464C2.61019 17.4162 2.24511 16.4021 2.24511 15.1446V6.82892C2.24511 5.61199 2.61019 4.59788 3.34035 3.86772C4.02994 3.17812 5.08462 2.81304 6.30155 2.81304H14.6578C15.8747 2.81304 16.8888 3.17812 17.619 3.90828C18.3086 4.63844 18.7142 5.65255 18.7142 6.82892V15.1852Z" fill="white"/>
</svg>
