<svg width="297" height="50" viewBox="0 0 297 50" fill="none" xmlns="http://www.w3.org/2000/svg" class="current">
<g clip-path="url(#clip0_164_2)">
<path class="filled" d="M296.997 0H93.0256V50H296.997V0Z" fill="#1D2120"/>
<path d="M1.40502e-05 16.559H6.39102C10.9972 16.559 14.1251 17.7764 14.1251 20.8882C14.1251 22.646 12.8511 24.2143 10.1709 24.7547V24.8634C13.4761 25.2702 15.3961 26.677 15.3961 29.1118C15.3961 32.6025 11.9587 34.3044 6.90783 34.3044H-0.00299072L1.40502e-05 16.559ZM5.91027 24.0124C9.75929 24.0124 11.3187 23.0404 11.3187 21.0652C11.3187 19.1429 9.51591 18.441 6.0605 18.441H2.83946V24.0249L5.91027 24.0124ZM6.51121 32.3975C10.3602 32.3975 12.5927 31.3944 12.5927 28.9814C12.5927 26.7888 10.4624 25.8975 6.51121 25.8975H2.83946V32.3913L6.51121 32.3975Z" fill="black"/>
<path d="M28.3614 16.5093H31.7056L39.4097 34.0994H36.2728L32.3336 24.2857C31.5313 22.3292 30.7651 20.3975 30.0681 18.3602H29.9298C29.1967 20.3975 28.4665 22.3292 27.6643 24.2857L23.656 34.0994H20.6513L28.3614 16.5093ZM24.7377 26.9472H35.2271V28.7702H24.7377V26.9472Z" fill="black"/>
<path d="M59.1536 26.7919V24.9907H61.7857V33.3758C59.7014 33.9998 57.5436 34.3228 55.3737 34.3354C52.2157 34.3354 49.6137 33.6615 47.5615 32.0279C45.7586 30.5776 44.6499 28.2484 44.6499 25.5279C44.6799 20.323 48.9556 16.5217 55.9536 16.5217C58.3574 16.5217 60.2593 16.9627 61.1577 17.3261L60.5298 19.1522C59.0489 18.6156 57.4863 18.361 55.9175 18.4006C50.8366 18.4006 47.5224 21.0404 47.5224 25.4192C47.5224 29.8478 50.7134 32.4627 55.575 32.4627C57.3418 32.4627 58.5497 32.2578 59.1806 31.9969V26.7919" fill="black"/>
<path d="M70.7457 31.3696L71.9476 29.4783C73.8702 30.9975 76.2345 31.7979 78.6541 31.7484C81.2622 31.7484 82.5332 30.5807 82.5332 29.1677C82.5332 27.8975 81.9322 26.9938 77.7257 26.0621C73.6903 25.1677 71.6862 23.6894 71.6862 21.177C71.6862 18.4938 73.8796 16.4317 78.1072 16.4317C80.3431 16.4863 82.5126 17.228 84.339 18.5621L83.068 20.3882C81.5628 19.2525 79.7485 18.6383 77.8849 18.6335C75.2798 18.6335 74.3243 19.7671 74.3243 21.0404C74.3243 22.4845 75.6614 23.1056 78.8314 23.8354C83.9394 25.0404 85.1893 26.4161 85.1893 28.9969C85.1893 31.7143 82.7405 33.9845 78.3206 33.9845C75.5944 33.9458 72.9472 33.032 70.7457 31.3696Z" fill="black"/>
<path d="M103.164 16.5963H108.5C114.99 16.5963 118.515 19.736 118.515 25.3137C118.515 30.8913 114.99 34.1894 108.632 34.1894H103.164V16.5963ZM108.305 32.3478C113.214 32.3478 115.651 29.7733 115.651 25.323C115.651 20.8727 113.211 18.4472 108.305 18.4472H105.931V32.3478H108.305Z" fill="white"/>
<path d="M126.156 16.7422H137.631V18.6304H128.529V24.0839H136.215V25.9721H128.529V32.3044H137.913V34.1926H126.156V16.7422Z" fill="white"/>
<path d="M177.224 16.5093H188.698V18.413H179.597V23.9099H187.286V25.8261H179.597V32.205H188.981V34.1087H177.224V16.5093Z" fill="white"/>
<path d="M217.177 16.7422H228.652V18.6304H219.551V24.0839H227.24V25.9721H219.551V32.3044H228.934V34.1926H217.177V16.7422Z" fill="white"/>
<path d="M156.455 16.5093H162.582C166.56 16.5093 169.459 17.7981 169.459 21.4783C169.459 24.9969 166.56 26.6863 162.582 26.6863H158.997V34.1397H156.455V16.5093ZM162.224 24.8602C165.274 24.8602 166.947 23.7298 166.947 21.4751C166.947 19.1677 165.274 18.3354 162.224 18.3354H158.997V24.8571L162.224 24.8602ZM164.048 24.8851L170.027 34.1211H167.197L162.089 26.0683L164.048 24.8851Z" fill="white"/>
<path d="M194.365 16.7422H197.16L200.42 26.059C201.132 28.0839 201.622 29.7423 202.373 31.7454H202.499C203.244 29.7423 203.77 28.0839 204.455 26.059L207.712 16.7422H210.383L203.926 34.0124H200.886L194.365 16.7422Z" fill="white"/>
<path d="M178.942 14.5963L181.646 11.8012H184.047L186.751 14.5963H184.922L183.434 13.059H182.548L181.06 14.5932L178.942 14.5963Z" fill="white"/>
</g>
<defs>
<clipPath id="clip0_164_2">
<rect width="297" height="50" fill="white"/>
</clipPath>
</defs>
</svg>
