<svg xmlns="http://www.w3.org/2000/svg" version="1.1" xmlnsXlink="http://www.w3.org/1999/xlink" xmlnssvgjs="http://svgjs.com/svgjs" width="1440" height="560" preserveAspectRatio="none" viewBox="0 0 1440 560"><g mask="url(&quot;#SvgjsMask1789&quot;)" fill="none"><rect width="1440" height="560" x="0" y="0" fill="#0e2a47"></rect><use xlink:href="#SvgjsG1796" transform="translate(0, 0)" fill="rgba(231, 54, 53, 1)"></use><use xlink:href="#SvgjsG1796" transform="translate(0, 528)" fill="rgba(3, 123, 11, 1)"></use><use xlink:href="#SvgjsG1796" transform="translate(528, 0)" fill="rgba(211, 183, 20, 1)"></use><use xlink:href="#SvgjsG1796" transform="translate(528, 528)" fill="rgba(211, 183, 20, 1)"></use><use xlink:href="#SvgjsG1796" transform="translate(1056, 0)" fill="rgba(211, 183, 20, 1)"></use><use xlink:href="#SvgjsG1796" transform="translate(1056, 528)" fill="#0f457b"></use></g><defs><mask id="SvgjsMask1789"><rect width="1440" height="560" fill="#ffffff"></rect></mask><g id="SvgjsG1792"><path d="M6.11 8.61L13.5 5.63l0.83 2.05-7.39 2.99z"></path><path d="M9.84 0.59l2.34 0.99-3.14 7.39L6.71 7.98z"></path><path d="M6.94 10.68L3.95 3.28l2.05-0.83L8.99 9.85zM-0.32 10.2l12.64 5.37-0.89 2.08L-1.21 12.29z"></path><path d="M0.86 6.21l2.09 0.89-2.5 5.89-2.09-0.89z m11.3 4.8l2.08 0.88-2.5 5.89-2.08-0.88z"></path></g><g id="SvgjsG1790"><path d="M4.81 14.78C0.9 13.12-0.94 8.58 0.73 4.66 2.39 0.74 6.93-1.09 10.84 0.57S16.59 6.77 14.93 10.69c-1.66 3.92-6.2 5.75-10.12 4.09z m0.75-1.76c2.95 1.25 6.37-0.13 7.62-3.08 1.25-2.94-0.13-6.37-3.08-7.61-2.95-1.25-6.36 0.13-7.62 3.07-1.25 2.95 0.13 6.36 3.08 7.62z"></path><path d="M7.47 8.63a0.57 0.57 0 0 1-0.5-0.26 0.58 0.58 0 0 1-0.08-0.47L8.63 3.77a0.58 0.58 0 0 1 1.07 0.46l-1.36 3.2 3.29-0.13a0.58 0.58 0 0 1 0.6 0.56c0.01 0.32-0.24 0.59-0.55 0.6l-4.21 0.17z"></path></g><g id="SvgjsG1793"><path d="M0.61 12.09l-1.09-0.46C-1.23 11.31-1.73 10.45-1.32 9.48c0 0 2.92-6.88 2.93-6.9 0.36-0.85 1.35-1.2 2.12-0.87l1.09 0.47-4.21 9.91z m11.06-6.99L12.27 3.68c0.22-0.51-0.09-1.03-0.65-1.27 0 0-2.12-0.9-2.11-0.89-0.55-0.24-1.15-0.11-1.37 0.4l-0.6 1.43L5.55 2.51l-4.21 9.91 8.12 3.45L13.67 5.95l-2-0.85z m-0.75-0.31L8.26 3.66l0.63-1.47 2.65 1.13-0.62 1.47z m-0.72 11.37l1.09 0.46c0.75 0.32 1.71 0.07 2.12-0.89 0 0 2.92-6.88 2.93-6.89 0.36-0.85-0.07-1.8-0.84-2.13l-1.09-0.46-4.21 9.91z"></path></g><g id="SvgjsG1795"><path d="M14.1 12.14c0.27 0.12 0.62 0 0.77-0.25 0 0 0.21-0.36 0.4-0.8s0.3-0.85 0.3-0.85c0.08-0.28-0.08-0.61-0.35-0.73l-1.41-0.59c-0.27-0.12-0.48-0.41-0.46-0.66s0.2-0.96 0.48-1.07l1.41-0.57c0.27-0.11 0.43-0.43 0.34-0.72l-0.67-1.66c-0.14-0.26-0.47-0.39-0.74-0.27l-1.41 0.57c-0.27 0.11-0.63 0.05-0.79-0.13s-0.54-0.83-0.42-1.1L12.14 1.9c0.12-0.27 0-0.62-0.25-0.77 0 0-0.36-0.21-0.8-0.4s-0.85-0.3-0.85-0.3c-0.29-0.08-0.61 0.08-0.73 0.35l-0.6 1.41c-0.12 0.27-0.41 0.48-0.65 0.46s-0.96-0.2-1.07-0.48l-0.57-1.41C6.51 0.48 6.19 0.33 5.9 0.42l-1.66 0.67c-0.26 0.14-0.39 0.47-0.27 0.74l0.57 1.41c0.11 0.27 0.05 0.63-0.13 0.79s-0.83 0.54-1.11 0.42L1.9 3.86c-0.27-0.12-0.62 0-0.77 0.25 0 0-0.21 0.36-0.4 0.8s-0.3 0.85-0.3 0.85c-0.08 0.29 0.08 0.61 0.35 0.73l1.41 0.6c0.27 0.12 0.48 0.41 0.46 0.65-0.02 0.24-0.2 0.96-0.48 1.07l-1.41 0.57C0.49 9.49 0.33 9.82 0.42 10.1l0.67 1.66c0.14 0.26 0.47 0.39 0.74 0.28l1.41-0.57c0.27-0.11 0.63-0.05 0.79 0.12s0.54 0.83 0.42 1.11l-0.59 1.4c-0.12 0.27 0 0.62 0.25 0.77 0 0 0.36 0.21 0.8 0.4s0.85 0.3 0.85 0.3c0.29 0.08 0.61-0.08 0.73-0.35l0.6-1.4c0.12-0.27 0.41-0.48 0.65-0.47 0.24 0.02 0.96 0.2 1.07 0.48l0.57 1.41c0.11 0.27 0.43 0.43 0.72 0.35l1.66-0.68c0.26-0.14 0.39-0.47 0.28-0.74l-0.58-1.41c-0.11-0.27-0.05-0.63 0.14-0.79 0.18-0.16 0.83-0.54 1.1-0.42l1.4 0.6zM6.87 10.66c-1.47-0.62-2.16-2.32-1.53-3.79 0.62-1.47 2.32-2.16 3.79-1.53S11.29 7.66 10.66 9.13 8.34 11.29 6.87 10.66z"></path></g><g id="SvgjsG1794"><path d="M14.16 8.47c1.26-2.97-0.13-6.41-3.1-7.67-2.97-1.26-6.41 0.13-7.67 3.1L2.02 3.32l-3.63 8.56 13.5 5.73 3.63-8.56-1.36-0.58z m-8.57-3.63c0.74-1.75 2.77-2.57 4.53-1.83S12.69 5.78 11.95 7.53L5.6 4.84z m2.19 5.69l-1.05 2.46-1.46-0.62L6.32 9.91c-0.21-0.35-0.26-0.8-0.08-1.21 0.29-0.68 1.08-1 1.75-0.71s1 1.08 0.71 1.76c-0.17 0.41-0.53 0.68-0.92 0.78z"></path></g><g id="SvgjsG1791"><path d="M8.19 8.34l-0.2 0.48c0.48 0.13 0.61-0.3 0.2-0.47l0-0.01z m-0.22-0.77L8.15 7.14c-0.36-0.08-0.51 0.28-0.18 0.43z"></path><path d="M8.85 6.13c-1.04-0.44-2.24 0.04-2.68 1.08-0.44 1.04 0.04 2.24 1.09 2.68 1.04 0.44 2.24-0.04 2.68-1.08 0.44-1.04-0.04-2.24-1.09-2.68l0 0z m-1.07 3.17l-0.14 0.33-0.47-0.19 0.15-0.34c-0.25-0.15-0.63-0.62-0.43-1.19l0.49 0.21c-0.03 0.16-0.06 0.34 0.14 0.5l0.23-0.56c-0.29-0.17-0.67-0.5-0.46-0.99 0.24-0.55 0.92-0.47 1.06-0.4l0.14-0.34 0.46 0.2-0.14 0.33c0.3 0.15 0.65 0.6 0.43 1.1l-0.48-0.21c0.05-0.15 0-0.35-0.15-0.41l-0.21 0.51c0.35 0.2 0.73 0.52 0.51 1.02-0.18 0.44-0.76 0.57-1.13 0.43l0 0z"></path><path d="M-0.9 8.49l14.73 6.25L16.93 7.44 2.2 1.19l-3.1 7.3z m1.98-0.8L3 3.17l11.95 5.07L13.03 12.77 1.08 7.69z"></path></g><g id="SvgjsG1796"><use xlink:href="#SvgjsG1790" transform="translate(0, 0) scale(2.2)" fill="#0f457b"></use><use xlink:href="#SvgjsG1791" transform="translate(0, 52.800000000000004) scale(2.2)" fill="rgba(211, 183, 20, 1)"></use><use xlink:href="#SvgjsG1792" transform="translate(0, 105.60000000000001) scale(2.2)" fill="rgba(231, 54, 53, 1)"></use><use xlink:href="#SvgjsG1793" transform="translate(0, 158.4) scale(2.2)" fill="rgba(3, 123, 11, 1)"></use><use xlink:href="#SvgjsG1794" transform="translate(0, 211.20000000000002) scale(2.2)" fill="rgba(3, 123, 11, 1)"></use><use xlink:href="#SvgjsG1795" transform="translate(0, 264) scale(2.2)" fill="#0f457b"></use><use xlink:href="#SvgjsG1794" transform="translate(0, 316.8) scale(2.2)" fill="rgba(211, 183, 20, 1)"></use><use xlink:href="#SvgjsG1795" transform="translate(0, 369.6) scale(2.2)" fill="rgba(231, 54, 53, 1)"></use><use xlink:href="#SvgjsG1791" transform="translate(0, 422.40000000000003) scale(2.2)" fill="rgba(3, 123, 11, 1)"></use><use xlink:href="#SvgjsG1795" transform="translate(0, 475.20000000000005) scale(2.2)" fill="#0f457b"></use><use xlink:href="#SvgjsG1793" transform="translate(52.800000000000004, 0) scale(2.2)" fill="rgba(231, 54, 53, 1)"></use><use xlink:href="#SvgjsG1792" transform="translate(52.800000000000004, 52.800000000000004) scale(2.2)" fill="rgba(211, 183, 20, 1)"></use><use xlink:href="#SvgjsG1795" transform="translate(52.800000000000004, 105.60000000000001) scale(2.2)" fill="rgba(211, 183, 20, 1)"></use><use xlink:href="#SvgjsG1791" transform="translate(52.800000000000004, 158.4) scale(2.2)" fill="rgba(211, 183, 20, 1)"></use><use xlink:href="#SvgjsG1794" transform="translate(52.800000000000004, 211.20000000000002) scale(2.2)" fill="rgba(3, 123, 11, 1)"></use><use xlink:href="#SvgjsG1792" transform="translate(52.800000000000004, 264) scale(2.2)" fill="rgba(3, 123, 11, 1)"></use><use xlink:href="#SvgjsG1795" transform="translate(52.800000000000004, 316.8) scale(2.2)" fill="rgba(231, 54, 53, 1)"></use><use xlink:href="#SvgjsG1790" transform="translate(52.800000000000004, 369.6) scale(2.2)" fill="rgba(211, 183, 20, 1)"></use><use xlink:href="#SvgjsG1790" transform="translate(52.800000000000004, 422.40000000000003) scale(2.2)" fill="#0f457b"></use><use xlink:href="#SvgjsG1793" transform="translate(52.800000000000004, 475.20000000000005) scale(2.2)" fill="rgba(211, 183, 20, 1)"></use><use xlink:href="#SvgjsG1793" transform="translate(105.60000000000001, 0) scale(2.2)" fill="rgba(231, 54, 53, 1)"></use><use xlink:href="#SvgjsG1792" transform="translate(105.60000000000001, 52.800000000000004) scale(2.2)" fill="#0f457b"></use><use xlink:href="#SvgjsG1791" transform="translate(105.60000000000001, 105.60000000000001) scale(2.2)" fill="#0f457b"></use><use xlink:href="#SvgjsG1793" transform="translate(105.60000000000001, 158.4) scale(2.2)" fill="rgba(231, 54, 53, 1)"></use><use xlink:href="#SvgjsG1792" transform="translate(105.60000000000001, 211.20000000000002) scale(2.2)" fill="rgba(211, 183, 20, 1)"></use><use xlink:href="#SvgjsG1792" transform="translate(105.60000000000001, 264) scale(2.2)" fill="rgba(211, 183, 20, 1)"></use><use xlink:href="#SvgjsG1791" transform="translate(105.60000000000001, 316.8) scale(2.2)" fill="rgba(3, 123, 11, 1)"></use><use xlink:href="#SvgjsG1790" transform="translate(105.60000000000001, 369.6) scale(2.2)" fill="rgba(211, 183, 20, 1)"></use><use xlink:href="#SvgjsG1793" transform="translate(105.60000000000001, 422.40000000000003) scale(2.2)" fill="rgba(211, 183, 20, 1)"></use><use xlink:href="#SvgjsG1791" transform="translate(105.60000000000001, 475.20000000000005) scale(2.2)" fill="rgba(211, 183, 20, 1)"></use><use xlink:href="#SvgjsG1791" transform="translate(158.4, 0) scale(2.2)" fill="#0f457b"></use><use xlink:href="#SvgjsG1792" transform="translate(158.4, 52.800000000000004) scale(2.2)" fill="rgba(231, 54, 53, 1)"></use><use xlink:href="#SvgjsG1792" transform="translate(158.4, 105.60000000000001) scale(2.2)" fill="rgba(231, 54, 53, 1)"></use><use xlink:href="#SvgjsG1794" transform="translate(158.4, 158.4) scale(2.2)" fill="rgba(211, 183, 20, 1)"></use><use xlink:href="#SvgjsG1794" transform="translate(158.4, 211.20000000000002) scale(2.2)" fill="rgba(231, 54, 53, 1)"></use><use xlink:href="#SvgjsG1793" transform="translate(158.4, 264) scale(2.2)" fill="rgba(231, 54, 53, 1)"></use><use xlink:href="#SvgjsG1794" transform="translate(158.4, 316.8) scale(2.2)" fill="rgba(211, 183, 20, 1)"></use><use xlink:href="#SvgjsG1794" transform="translate(158.4, 369.6) scale(2.2)" fill="rgba(3, 123, 11, 1)"></use><use xlink:href="#SvgjsG1790" transform="translate(158.4, 422.40000000000003) scale(2.2)" fill="rgba(231, 54, 53, 1)"></use><use xlink:href="#SvgjsG1793" transform="translate(158.4, 475.20000000000005) scale(2.2)" fill="rgba(231, 54, 53, 1)"></use><use xlink:href="#SvgjsG1791" transform="translate(211.20000000000002, 0) scale(2.2)" fill="rgba(3, 123, 11, 1)"></use><use xlink:href="#SvgjsG1794" transform="translate(211.20000000000002, 52.800000000000004) scale(2.2)" fill="rgba(211, 183, 20, 1)"></use><use xlink:href="#SvgjsG1792" transform="translate(211.20000000000002, 105.60000000000001) scale(2.2)" fill="rgba(231, 54, 53, 1)"></use><use xlink:href="#SvgjsG1792" transform="translate(211.20000000000002, 158.4) scale(2.2)" fill="#0f457b"></use><use xlink:href="#SvgjsG1794" transform="translate(211.20000000000002, 211.20000000000002) scale(2.2)" fill="rgba(211, 183, 20, 1)"></use><use xlink:href="#SvgjsG1792" transform="translate(211.20000000000002, 264) scale(2.2)" fill="#0f457b"></use><use xlink:href="#SvgjsG1790" transform="translate(211.20000000000002, 316.8) scale(2.2)" fill="#0f457b"></use><use xlink:href="#SvgjsG1791" transform="translate(211.20000000000002, 369.6) scale(2.2)" fill="rgba(211, 183, 20, 1)"></use><use xlink:href="#SvgjsG1795" transform="translate(211.20000000000002, 422.40000000000003) scale(2.2)" fill="rgba(211, 183, 20, 1)"></use><use xlink:href="#SvgjsG1790" transform="translate(211.20000000000002, 475.20000000000005) scale(2.2)" fill="rgba(231, 54, 53, 1)"></use><use xlink:href="#SvgjsG1793" transform="translate(264, 0) scale(2.2)" fill="rgba(231, 54, 53, 1)"></use><use xlink:href="#SvgjsG1794" transform="translate(264, 52.800000000000004) scale(2.2)" fill="rgba(231, 54, 53, 1)"></use><use xlink:href="#SvgjsG1793" transform="translate(264, 105.60000000000001) scale(2.2)" fill="#0f457b"></use><use xlink:href="#SvgjsG1791" transform="translate(264, 158.4) scale(2.2)" fill="rgba(231, 54, 53, 1)"></use><use xlink:href="#SvgjsG1790" transform="translate(264, 211.20000000000002) scale(2.2)" fill="rgba(211, 183, 20, 1)"></use><use xlink:href="#SvgjsG1793" transform="translate(264, 264) scale(2.2)" fill="rgba(211, 183, 20, 1)"></use><use xlink:href="#SvgjsG1793" transform="translate(264, 316.8) scale(2.2)" fill="rgba(3, 123, 11, 1)"></use><use xlink:href="#SvgjsG1793" transform="translate(264, 369.6) scale(2.2)" fill="rgba(211, 183, 20, 1)"></use><use xlink:href="#SvgjsG1790" transform="translate(264, 422.40000000000003) scale(2.2)" fill="rgba(231, 54, 53, 1)"></use><use xlink:href="#SvgjsG1791" transform="translate(264, 475.20000000000005) scale(2.2)" fill="#0f457b"></use><use xlink:href="#SvgjsG1791" transform="translate(316.8, 0) scale(2.2)" fill="rgba(3, 123, 11, 1)"></use><use xlink:href="#SvgjsG1794" transform="translate(316.8, 52.800000000000004) scale(2.2)" fill="#0f457b"></use><use xlink:href="#SvgjsG1791" transform="translate(316.8, 105.60000000000001) scale(2.2)" fill="rgba(231, 54, 53, 1)"></use><use xlink:href="#SvgjsG1794" transform="translate(316.8, 158.4) scale(2.2)" fill="#0f457b"></use><use xlink:href="#SvgjsG1794" transform="translate(316.8, 211.20000000000002) scale(2.2)" fill="rgba(231, 54, 53, 1)"></use><use xlink:href="#SvgjsG1793" transform="translate(316.8, 264) scale(2.2)" fill="rgba(231, 54, 53, 1)"></use><use xlink:href="#SvgjsG1791" transform="translate(316.8, 316.8) scale(2.2)" fill="rgba(231, 54, 53, 1)"></use><use xlink:href="#SvgjsG1793" transform="translate(316.8, 369.6) scale(2.2)" fill="rgba(3, 123, 11, 1)"></use><use xlink:href="#SvgjsG1790" transform="translate(316.8, 422.40000000000003) scale(2.2)" fill="rgba(231, 54, 53, 1)"></use><use xlink:href="#SvgjsG1790" transform="translate(316.8, 475.20000000000005) scale(2.2)" fill="rgba(3, 123, 11, 1)"></use><use xlink:href="#SvgjsG1790" transform="translate(369.6, 0) scale(2.2)" fill="rgba(211, 183, 20, 1)"></use><use xlink:href="#SvgjsG1793" transform="translate(369.6, 52.800000000000004) scale(2.2)" fill="rgba(211, 183, 20, 1)"></use><use xlink:href="#SvgjsG1790" transform="translate(369.6, 105.60000000000001) scale(2.2)" fill="#0f457b"></use><use xlink:href="#SvgjsG1795" transform="translate(369.6, 158.4) scale(2.2)" fill="rgba(3, 123, 11, 1)"></use><use xlink:href="#SvgjsG1793" transform="translate(369.6, 211.20000000000002) scale(2.2)" fill="#0f457b"></use><use xlink:href="#SvgjsG1791" transform="translate(369.6, 264) scale(2.2)" fill="rgba(231, 54, 53, 1)"></use><use xlink:href="#SvgjsG1790" transform="translate(369.6, 316.8) scale(2.2)" fill="rgba(3, 123, 11, 1)"></use><use xlink:href="#SvgjsG1794" transform="translate(369.6, 369.6) scale(2.2)" fill="rgba(231, 54, 53, 1)"></use><use xlink:href="#SvgjsG1793" transform="translate(369.6, 422.40000000000003) scale(2.2)" fill="#0f457b"></use><use xlink:href="#SvgjsG1793" transform="translate(369.6, 475.20000000000005) scale(2.2)" fill="rgba(231, 54, 53, 1)"></use><use xlink:href="#SvgjsG1791" transform="translate(422.40000000000003, 0) scale(2.2)" fill="#0f457b"></use><use xlink:href="#SvgjsG1795" transform="translate(422.40000000000003, 52.800000000000004) scale(2.2)" fill="rgba(211, 183, 20, 1)"></use><use xlink:href="#SvgjsG1794" transform="translate(422.40000000000003, 105.60000000000001) scale(2.2)" fill="rgba(211, 183, 20, 1)"></use><use xlink:href="#SvgjsG1793" transform="translate(422.40000000000003, 158.4) scale(2.2)" fill="#0f457b"></use><use xlink:href="#SvgjsG1791" transform="translate(422.40000000000003, 211.20000000000002) scale(2.2)" fill="rgba(211, 183, 20, 1)"></use><use xlink:href="#SvgjsG1795" transform="translate(422.40000000000003, 264) scale(2.2)" fill="rgba(211, 183, 20, 1)"></use><use xlink:href="#SvgjsG1794" transform="translate(422.40000000000003, 316.8) scale(2.2)" fill="rgba(211, 183, 20, 1)"></use><use xlink:href="#SvgjsG1791" transform="translate(422.40000000000003, 369.6) scale(2.2)" fill="rgba(3, 123, 11, 1)"></use><use xlink:href="#SvgjsG1795" transform="translate(422.40000000000003, 422.40000000000003) scale(2.2)" fill="rgba(211, 183, 20, 1)"></use><use xlink:href="#SvgjsG1793" transform="translate(422.40000000000003, 475.20000000000005) scale(2.2)" fill="rgba(3, 123, 11, 1)"></use><use xlink:href="#SvgjsG1795" transform="translate(475.20000000000005, 0) scale(2.2)" fill="rgba(231, 54, 53, 1)"></use><use xlink:href="#SvgjsG1795" transform="translate(475.20000000000005, 52.800000000000004) scale(2.2)" fill="rgba(211, 183, 20, 1)"></use><use xlink:href="#SvgjsG1792" transform="translate(475.20000000000005, 105.60000000000001) scale(2.2)" fill="#0f457b"></use><use xlink:href="#SvgjsG1793" transform="translate(475.20000000000005, 158.4) scale(2.2)" fill="#0f457b"></use><use xlink:href="#SvgjsG1790" transform="translate(475.20000000000005, 211.20000000000002) scale(2.2)" fill="#0f457b"></use><use xlink:href="#SvgjsG1795" transform="translate(475.20000000000005, 264) scale(2.2)" fill="rgba(211, 183, 20, 1)"></use><use xlink:href="#SvgjsG1793" transform="translate(475.20000000000005, 316.8) scale(2.2)" fill="rgba(211, 183, 20, 1)"></use><use xlink:href="#SvgjsG1793" transform="translate(475.20000000000005, 369.6) scale(2.2)" fill="#0f457b"></use><use xlink:href="#SvgjsG1793" transform="translate(475.20000000000005, 422.40000000000003) scale(2.2)" fill="rgba(3, 123, 11, 1)"></use><use xlink:href="#SvgjsG1792" transform="translate(475.20000000000005, 475.20000000000005) scale(2.2)" fill="#0f457b"></use></g></defs></svg>